<?xml version="1.0" standalone="no"?>
<!DOCTYPE svg PUBLIC "-//W3C//DTD SVG 20010904//EN"
 "http://www.w3.org/TR/2001/REC-SVG-20010904/DTD/svg10.dtd">
<svg version="1.0" xmlns="http://www.w3.org/2000/svg"
 width="340.000000pt" height="340.000000pt" viewBox="0 0 340.000000 340.000000"
 preserveAspectRatio="xMidYMid meet">

<g transform="translate(0.000000,340.000000) scale(0.100000,-0.100000)"
fill="#000000" stroke="none">
<path d="M1490 2991 c0 -6 10 -11 22 -11 37 0 15 -9 -46 -18 -33 -5 -71 -6
-85 -2 l-26 8 30 2 c17 1 24 4 18 7 -17 6 -138 -22 -224 -52 -132 -46 -321
-150 -396 -218 -33 -29 -28 -45 5 -17 15 13 2 -2 -30 -33 -31 -31 -62 -57 -68
-57 -18 0 -6 24 18 36 12 6 19 14 15 17 -3 4 -1 7 5 7 7 0 12 6 12 12 0 19
-156 -139 -205 -207 -114 -158 -189 -318 -237 -505 -71 -277 -39 -620 81 -885
111 -242 344 -493 575 -620 36 -20 66 -38 66 -39 0 -2 -7 -3 -15 -3 -8 0 -15
3 -15 7 0 3 -16 14 -36 23 -27 13 -39 15 -52 6 -15 -9 -15 -10 1 -5 16 5 18 2
12 -24 -5 -24 -1 -37 19 -61 14 -17 26 -34 26 -38 0 -14 112 -59 185 -75 166
-35 399 -66 502 -66 114 0 340 27 443 53 175 45 300 121 312 189 3 15 2 25 -3
23 -9 -6 -6 16 5 34 7 11 5 13 -8 8 -10 -4 -20 -7 -22 -7 -3 0 -2 -5 2 -12 4
-7 3 -8 -4 -4 -6 4 -23 -1 -37 -10 -14 -9 -25 -14 -25 -12 0 3 30 24 66 48
229 148 395 352 512 630 45 107 73 205 65 226 -3 8 -1 20 5 27 17 22 31 110
32 212 2 130 2 127 -11 119 -8 -4 -7 -9 2 -16 11 -8 11 -9 -1 -5 -10 2 -15 16
-15 40 0 21 -3 37 -7 37 -5 0 -8 19 -8 42 0 62 21 33 23 -31 1 -28 5 -51 10
-51 4 0 7 8 7 18 0 34 -32 197 -41 212 -11 16 -10 5 7 -65 5 -22 4 -27 -5 -19
-15 14 -42 157 -30 164 15 10 -38 139 -71 172 -17 17 -29 33 -26 35 2 3 -7 21
-20 40 -13 19 -21 40 -18 45 4 5 21 -16 40 -49 18 -32 34 -55 34 -51 0 4 -25
52 -55 105 -57 102 -104 167 -105 145 0 -7 9 -20 19 -29 11 -9 17 -22 14 -29
-3 -8 1 -14 9 -14 14 0 43 -48 35 -57 -13 -12 -90 118 -82 139 8 19 -119 154
-209 222 -85 65 -301 186 -331 186 -15 -1 -13 -4 10 -15 17 -7 24 -14 17 -14
-7 -1 -30 8 -51 19 -21 10 -41 16 -45 13 -3 -4 -6 -1 -6 6 0 8 7 11 18 6 10
-4 13 -3 7 3 -11 10 -102 42 -119 42 -6 0 8 -10 32 -21 24 -12 41 -24 38 -26
-2 -2 -12 0 -23 5 -10 6 -49 19 -86 29 -38 10 -68 23 -67 28 2 16 -62 24 -232
31 -116 5 -158 4 -158 -5z m205 -12 c-45 -10 -123 -10 -130 0 -3 6 29 9 77 8
56 0 73 -3 53 -8z m-475 -54 c0 -9 -105 -59 -127 -60 -32 -1 -20 10 29 25 24
8 52 20 63 27 20 13 35 17 35 8z m485 -35 c25 -11 10 -13 -61 -10 -29 1 -54
-2 -57 -7 -3 -4 19 -8 49 -8 37 0 59 -5 70 -17 16 -16 16 -18 -10 -28 -39 -14
-92 -12 -126 5 -35 18 -37 28 -10 55 15 15 33 20 73 19 28 0 61 -4 72 -9z
m155 -9 c0 -5 -19 -20 -42 -34 l-42 -25 62 -7 c89 -10 77 -24 -15 -18 -101 6
-111 9 -92 28 48 48 129 83 129 56z m-820 -46 c-20 -19 -126 -65 -134 -58 -6
6 39 33 62 37 8 1 17 7 20 13 8 11 30 21 52 22 13 1 13 -1 0 -14z m320 0 c6
-8 10 -22 8 -32 -5 -29 -148 -89 -148 -63 0 6 6 12 13 14 6 2 31 9 55 15 23 7
42 16 42 21 0 5 -16 2 -35 -6 -43 -17 -95 -19 -95 -1 1 48 128 90 160 52z
m-195 -99 c22 9 18 -6 -7 -27 -29 -26 -33 -25 -51 21 -14 37 -14 41 1 49 14 8
20 4 29 -19 9 -20 18 -28 28 -24z m1019 39 c18 -13 17 -14 -5 -19 -13 -3 -37
-7 -54 -9 -30 -3 -29 -3 17 -25 45 -21 65 -38 56 -47 -7 -7 -146 69 -147 80
-2 8 53 25 109 34 3 0 13 -6 24 -14z m179 3 c12 -7 24 -15 27 -18 3 -3 20 -16
38 -29 17 -12 32 -27 32 -32 0 -10 -116 66 -126 83 -7 11 3 10 29 -4z m-44
-77 c40 -21 71 -51 53 -51 -6 0 -28 11 -48 25 -39 26 -54 31 -54 16 0 -5 10
-11 23 -15 30 -7 80 -53 72 -66 -16 -26 -118 17 -140 60 -26 50 23 67 94 31z
m-1427 -67 c-23 -20 -42 -40 -42 -46 0 -6 8 -4 18 5 27 25 50 22 27 -3 -10
-11 -16 -23 -13 -26 3 -3 19 11 36 32 17 20 36 34 44 32 19 -7 -84 -108 -111
-108 -12 0 -21 6 -21 16 0 8 -4 12 -10 9 -21 -13 -30 6 -16 33 17 33 51 64 91
85 46 23 44 10 -3 -29z m854 22 c16 -12 17 -18 7 -34 -9 -16 -8 -23 5 -36 16
-16 15 -19 -7 -37 -16 -13 -38 -19 -70 -19 -55 0 -74 10 -69 37 1 11 -3 28
-11 37 -11 13 -12 22 -4 34 19 31 115 42 149 18z m806 -20 c39 -30 65 -63 56
-72 -2 -1 -16 9 -33 23 -16 14 -24 22 -17 19 6 -4 12 -2 12 3 0 6 -8 11 -18
11 -10 0 -29 11 -42 25 -34 36 -10 31 42 -9z m-1002 0 c0 -10 -13 -14 -46 -14
-31 1 -51 -4 -62 -16 -16 -17 -14 -18 35 -11 81 11 117 -11 93 -55 -25 -48
-154 -44 -166 4 -11 45 0 70 36 88 43 22 110 24 110 4z m-924 -121 c-25 -28
-53 -50 -65 -51 -11 -1 -18 3 -15 8 3 4 9 6 13 3 5 -2 13 7 20 21 6 14 15 23
20 19 5 -3 13 0 17 6 4 8 3 9 -4 5 -20 -12 -13 3 15 34 19 22 29 27 34 18 5
-8 -9 -32 -35 -63z m1516 6 c54 -34 62 -45 45 -59 -10 -8 -20 -4 -40 18 -29
30 -64 47 -75 35 -4 -4 5 -17 19 -28 36 -30 28 -51 -11 -29 -16 9 -32 13 -37
8 -13 -12 36 -46 68 -46 22 0 29 -5 29 -20 0 -11 -5 -20 -10 -20 -21 0 -85 31
-107 52 -27 25 -29 41 -8 58 8 7 13 16 10 20 -3 5 -2 15 1 24 10 26 65 19 116
-13z m-984 -40 c-2 -33 0 -62 4 -66 4 -4 25 7 46 24 40 31 62 39 62 22 0 -16
-132 -113 -140 -104 -5 4 -10 41 -11 82 -2 62 1 76 16 87 10 8 21 14 23 14 2
0 2 -27 0 -59z m-403 2 l-7 -48 40 39 c22 21 46 36 53 34 15 -5 -100 -128
-119 -128 -19 0 -16 109 5 132 27 30 36 21 28 -29z m1822 -38 c32 -10 57 -24
67 -40 20 -30 20 -30 -44 -5 -27 11 -50 16 -50 11 0 -5 3 -11 8 -13 12 -5 62
-69 62 -79 0 -23 -23 -4 -70 57 -27 37 -50 71 -50 75 0 13 19 11 77 -6z
m-1549 -55 c15 -20 30 -29 45 -27 18 2 22 -2 19 -23 -1 -14 -9 -32 -17 -40
-13 -13 -20 -8 -60 35 -46 52 -54 70 -32 78 21 9 23 8 45 -23z m-578 -130 c-7
-16 -19 -30 -26 -30 -20 0 -17 11 8 43 27 33 35 28 18 -13z m1138 -15 c69 -58
33 -150 -65 -169 -28 -5 -33 -3 -33 14 0 13 7 20 20 20 27 0 68 20 74 37 11
29 -5 32 -41 8 -45 -31 -55 -31 -90 -1 -24 21 -26 26 -15 50 13 30 67 66 99
66 12 0 35 -11 51 -25z m-968 -37 c0 -36 -13 -42 -58 -26 -48 16 -45 13 -37
36 5 17 14 20 50 19 42 -2 45 -4 45 -29z m1838 11 c1 -9 -12 -22 -33 -32 -24
-11 -35 -23 -33 -35 2 -13 -3 -16 -22 -14 -22 2 -39 17 -40 34 0 11 103 68
115 65 6 -2 11 -10 13 -18z m-477 -50 c38 -28 69 -55 69 -60 0 -21 -48 -31
-104 -22 -42 8 -59 7 -66 -2 -17 -20 17 -48 52 -43 25 4 28 2 28 -24 0 -26 -2
-28 -27 -22 -69 17 -105 48 -105 91 0 39 28 56 85 48 26 -3 47 -3 47 0 0 2
-18 17 -40 31 -32 21 -38 30 -29 40 6 8 14 14 17 14 2 0 35 -23 73 -51z
m-1581 -1 c-4 -18 -11 -45 -14 -60 -7 -29 -56 -90 -56 -69 0 7 11 36 24 64 13
29 26 62 30 75 11 35 25 26 16 -10z m480 -59 c17 -49 20 -67 11 -85 -10 -24
-11 -24 -52 -8 -35 14 -42 15 -50 3 -11 -18 -25 -3 -35 34 -5 23 -3 29 14 34
13 3 29 24 42 55 26 60 38 55 70 -33z m522 75 c3 -3 4 -13 1 -22 -3 -14 -12
-17 -36 -14 -40 5 -84 -26 -74 -51 9 -24 53 -21 78 4 28 28 60 18 80 -25 l15
-34 -63 -31 c-59 -29 -83 -32 -83 -12 0 4 20 17 45 29 25 12 45 29 45 37 0 19
-3 19 -50 -5 -50 -25 -84 -18 -100 20 -9 22 -9 33 2 50 21 36 120 74 140 54z
m1137 -98 c23 -40 41 -76 41 -80 0 -19 -54 -1 -91 29 -28 24 -45 33 -52 26
-12 -12 15 -59 39 -68 8 -3 14 -11 14 -19 0 -25 -27 -15 -60 22 -35 40 -38 89
-8 108 13 8 25 4 57 -22 22 -18 42 -32 45 -32 4 0 -7 21 -23 47 -28 45 -31 63
-11 63 5 0 27 -33 49 -74z m-2039 14 c-11 -22 -20 -45 -20 -52 1 -7 10 5 21
27 24 49 44 69 58 61 31 -19 -10 -138 -55 -158 -23 -11 -28 -10 -40 7 -8 10
-14 28 -14 39 0 31 48 128 60 121 6 -4 2 -21 -10 -45z m2304 -7 c22 -46 35
-144 16 -127 -6 7 -14 29 -17 50 -3 22 -10 48 -16 59 -11 20 -12 20 -15 -2 -2
-12 2 -31 7 -42 18 -32 14 -71 -6 -71 -13 0 -24 19 -40 73 -12 39 -18 76 -14
80 5 5 14 -14 21 -42 7 -28 17 -54 23 -58 7 -4 8 0 3 13 -37 92 -3 152 38 67z
m-2049 -104 c4 -5 0 -18 -8 -27 -19 -21 -33 -72 -19 -72 5 0 15 13 22 29 35
87 112 76 96 -13 -10 -52 -46 -86 -90 -86 -30 0 -38 5 -52 32 -19 38 -14 101
12 129 19 22 30 24 39 8z m397 -72 c24 -30 22 -45 -4 -40 -22 4 -43 -10 -79
-54 -16 -20 -17 -38 -4 -87 6 -23 5 -27 -5 -21 -9 5 -11 4 -6 -4 4 -6 13 -8
19 -4 7 4 6 0 -2 -10 -11 -14 -11 -18 3 -23 9 -3 16 -10 16 -16 0 -5 -4 -7 -9
-3 -15 8 -23 -32 -16 -74 6 -34 3 -41 -21 -60 -15 -11 -34 -21 -43 -21 -30 0
-86 67 -115 137 -39 93 -40 105 -11 144 13 19 33 50 44 70 18 33 67 78 101 92
31 13 114 -3 132 -26z m1698 31 c0 -2 7 -41 15 -87 8 -47 13 -87 10 -89 -9
-10 -34 21 -52 64 -10 24 -21 44 -25 44 -12 0 -10 -17 7 -57 17 -40 19 -53 7
-53 -10 0 -42 93 -42 120 0 10 6 23 14 29 15 13 20 9 43 -39 11 -22 12 -20 7
23 -4 31 -3 47 5 47 6 0 11 -1 11 -2z m-1635 -78 c-3 -5 -14 -10 -23 -9 -14 0
-13 2 3 9 27 11 27 11 20 0z m-44 -16 c14 -13 21 -13 40 -3 20 10 25 9 41 -11
32 -39 17 -133 -23 -145 -10 -3 -27 0 -38 7 -16 10 -23 10 -33 0 -18 -18 -56
-14 -68 7 -18 34 -12 106 11 135 23 30 45 33 70 10z m-861 -61 c-1 -49 -25
-138 -30 -108 -9 60 -9 85 0 85 6 0 8 15 4 40 -5 33 -4 40 10 40 13 0 16 -11
16 -57z m1992 38 c50 -21 71 -43 87 -90 28 -85 -2 -264 -53 -308 -33 -29 -86
-56 -94 -48 -4 3 -8 23 -9 43 -2 20 -4 42 -4 47 -1 13 11 168 18 222 4 35 2
42 -15 47 -11 4 -27 15 -37 26 -18 20 -18 20 6 18 18 -2 23 1 21 14 -3 17 16
47 30 48 3 0 26 -8 50 -19z m-141 -48 c64 -48 78 -63 79 -85 0 -16 -3 -28 -6
-28 -4 0 -33 23 -65 51 -32 28 -63 48 -69 44 -5 -3 -10 -31 -10 -61 0 -46 -3
-54 -18 -54 -28 0 -30 6 -21 53 5 23 11 63 14 90 4 26 9 47 12 47 3 0 41 -26
84 -57z m-470 -1 c-5 -10 -11 -60 -13 -110 -3 -92 -3 -92 -29 -92 -25 0 -26 2
-22 53 2 28 5 65 7 80 2 20 -1 26 -11 23 -9 -4 -13 4 -13 25 0 24 4 30 15 25
8 -3 15 -1 15 4 0 6 14 10 30 10 27 0 29 -2 21 -18z m914 -7 c14 -13 26 -34
27 -47 0 -13 2 -30 3 -38 0 -8 -3 -28 -8 -43 -7 -22 -12 -25 -23 -16 -10 8
-11 16 -4 29 15 27 12 63 -5 86 -15 18 -16 18 -14 -6 3 -57 -2 -81 -21 -100
-28 -28 -57 -12 -66 35 -8 44 1 80 26 105 27 27 56 25 85 -5z m-2125 -21 c21
-55 6 -146 -26 -158 -21 -8 -40 3 -53 30 -14 31 -15 131 -1 139 6 4 10 -15 10
-49 0 -30 4 -57 9 -60 5 -4 7 10 4 31 -9 74 35 126 57 67z m807 -6 c-3 -8 -6
-5 -6 6 -1 11 2 17 5 13 3 -3 4 -12 1 -19z m858 -21 c9 -10 10 -18 2 -33 -10
-17 -9 -18 9 -5 18 14 18 14 2 -4 -22 -24 -47 -6 -40 30 5 29 8 30 27 12z
m-871 -32 c3 -8 2 -14 -2 -14 -19 3 -33 -2 -27 -10 3 -5 1 -12 -5 -16 -15 -9
-12 -25 4 -25 9 0 12 -8 8 -26 -3 -17 -9 -23 -19 -20 -8 3 -48 6 -89 6 -73 0
-74 0 -74 26 0 27 0 27 61 21 58 -7 60 -6 57 15 -2 12 3 23 12 25 13 4 13 3 0
-6 -12 -9 -9 -11 15 -10 17 0 24 3 16 6 -11 4 -8 10 10 24 29 22 26 22 33 4z
m-111 -22 c-7 -2 -19 -2 -25 0 -7 3 -2 5 12 5 14 0 19 -2 13 -5z m1047 -8 c10
-12 9 -15 -4 -15 -10 0 -14 5 -11 10 3 6 -1 10 -10 10 -9 0 -13 -4 -10 -10 3
-5 -1 -10 -11 -10 -13 0 -14 3 -4 15 7 8 18 15 25 15 7 0 18 -7 25 -15z
m-1412 -29 c34 -70 24 -126 -24 -126 -12 0 -26 -4 -29 -10 -10 -16 -40 -12
-58 8 -32 35 -34 152 -3 152 10 0 12 -13 8 -50 -3 -32 0 -55 8 -65 18 -21 30
-9 30 31 0 43 13 44 25 2 6 -18 15 -32 20 -31 17 4 17 41 1 75 -9 17 -16 35
-16 40 0 18 25 1 38 -26z m-498 -67 c0 -76 -11 -103 -24 -56 -8 29 -8 111 0
131 13 34 24 1 24 -75z m875 81 c3 -6 -1 -7 -9 -4 -18 7 -21 14 -7 14 6 0 13
-4 16 -10z m959 -25 c9 -9 21 -34 27 -55 17 -56 29 -50 29 15 0 49 2 55 21 55
20 0 21 -4 15 -52 -15 -119 -19 -137 -32 -142 -8 -3 -13 -2 -11 2 1 4 -8 18
-20 31 -12 12 -24 35 -28 49 -3 15 -13 37 -21 50 -12 19 -18 21 -30 11 -8 -6
-14 -22 -14 -34 0 -23 21 -49 34 -40 3 3 -3 -5 -14 -17 -26 -29 -41 -15 -47
46 -9 77 46 126 91 81z m742 -22 c8 -32 -2 -109 -19 -143 -8 -14 -12 -38 -10
-53 2 -15 -3 -37 -11 -49 -7 -13 -17 -40 -20 -61 -10 -53 -28 -42 -44 26 -17
70 -11 107 18 100 23 -6 53 15 46 32 -2 7 2 30 9 51 17 47 19 74 5 74 -5 0
-10 -13 -10 -30 0 -44 -20 -37 -21 8 l-1 37 -9 -30 c-5 -16 -7 -42 -3 -57 3
-14 0 -29 -5 -33 -12 -7 -15 17 -11 80 3 56 14 72 50 72 24 0 32 -6 36 -24z
m-338 -15 c9 -9 15 -9 24 0 43 43 76 -53 47 -137 -10 -30 -19 -37 -31 -26 -3
3 1 24 9 46 14 43 9 83 -10 76 -7 -2 -13 -18 -15 -36 -4 -37 -26 -37 -28 0 -2
53 -4 55 -20 34 -11 -14 -13 -32 -9 -62 6 -42 -5 -58 -21 -31 -13 20 -6 98 10
123 18 28 27 30 44 13z m-2048 -49 c16 -38 6 -49 -49 -56 -39 -5 -41 -4 -41
21 0 22 4 26 30 26 23 0 30 4 30 20 0 30 16 24 30 -11z m1636 -26 c-3 -4 -6
-1 -6 5 0 7 -8 12 -17 12 -15 0 -16 2 -3 10 10 6 17 4 23 -6 5 -9 6 -18 3 -21z
m850 -5 c-3 -13 -10 -49 -16 -80 -12 -60 -34 -83 -24 -25 13 78 27 127 35 127
5 0 7 -10 5 -22z m-836 -18 c8 -5 11 -10 5 -10 -5 0 -17 5 -25 10 -8 5 -10 10
-5 10 6 0 17 -5 25 -10z m-1288 -83 c16 -52 1 -92 -32 -91 -14 1 -30 -6 -36
-15 -10 -12 -16 -13 -37 -4 -29 13 -47 63 -47 126 0 31 3 38 17 35 14 -3 17
-12 14 -51 -2 -46 10 -77 31 -77 5 0 8 17 6 37 -4 45 17 56 25 13 4 -18 13
-30 22 -30 22 0 19 52 -5 82 -15 19 -16 28 -7 37 15 15 33 -7 49 -62z m498 18
c36 -19 60 -52 60 -84 0 -34 -44 -87 -77 -94 -35 -7 -87 17 -114 51 -17 23
-18 27 -4 34 11 7 22 1 41 -21 15 -19 35 -31 49 -31 36 0 38 16 4 30 -58 24
-78 86 -37 114 28 20 41 20 78 1z m660 -50 c0 -9 -9 -15 -23 -15 -31 0 -67
-27 -67 -51 0 -19 1 -19 38 2 95 55 153 -44 60 -101 -45 -28 -74 -25 -109 9
-63 63 -15 168 79 170 13 1 22 -5 22 -14z m-1665 -61 c9 -25 20 -64 23 -87 5
-38 4 -41 -11 -29 -19 16 -61 137 -52 152 12 19 22 10 40 -36z m1168 4 c31
-16 49 -53 38 -81 -12 -31 -39 -41 -91 -32 -22 4 -40 3 -40 -2 0 -6 49 -43 78
-59 1 0 0 -8 -4 -17 -4 -12 -21 -6 -85 36 l-80 52 23 18 c19 16 33 18 89 12
54 -5 67 -4 72 8 8 22 -28 50 -57 45 -24 -5 -36 7 -36 33 0 11 64 2 93 -13z
m1427 9 c0 -25 -31 -132 -42 -142 -11 -11 -7 17 14 108 11 43 28 65 28 34z
m-2375 -79 c51 -106 49 -112 -32 -78 -49 21 -73 43 -73 67 0 9 15 6 50 -12
l50 -25 -25 56 c-29 65 -28 64 -15 64 6 0 26 -32 45 -72z m1259 47 c4 -11 -10
-23 -49 -42 -30 -15 -55 -30 -55 -34 0 -18 21 -18 54 2 46 27 86 22 105 -13
13 -22 13 -30 2 -52 -17 -31 -68 -56 -115 -56 -27 0 -34 3 -30 15 4 9 19 15
40 15 45 0 79 32 64 60 -14 27 -32 25 -68 -5 -35 -29 -56 -25 -77 16 -8 15
-15 30 -15 33 0 5 121 76 131 76 4 0 9 -7 13 -15z m663 -17 c36 -33 31 -85
-12 -134 -28 -32 -36 -36 -44 -24 -7 11 -3 21 19 40 31 28 52 76 29 68 -8 -3
-13 -12 -13 -21 1 -9 -2 -15 -6 -12 -4 3 -15 -6 -24 -20 -25 -38 -86 -29 -86
13 0 28 33 83 59 97 36 20 51 18 78 -7z m93 -108 c-7 -22 -17 -40 -22 -40 -5
0 -7 -4 -4 -9 3 -4 -1 -17 -9 -27 -8 -10 -15 -14 -16 -9 0 6 -2 20 -3 32 -2
12 2 19 7 16 6 -4 8 2 5 15 -3 12 -3 20 1 19 3 -1 6 1 6 4 0 11 38 49 43 44 3
-3 -1 -23 -8 -45z m-2160 -78 c19 -51 19 -79 -1 -67 -5 4 -7 16 -4 28 2 12 -2
36 -10 52 -15 29 -15 29 -10 3 3 -14 8 -34 11 -45 5 -12 4 -15 -3 -8 -15 14
-33 73 -33 104 1 25 1 25 15 7 8 -11 24 -44 35 -74z m558 64 c18 -11 16 -18
-32 -79 -39 -51 -44 -54 -59 -40 -15 15 -14 19 14 50 16 19 27 39 23 44 -17
27 21 45 54 25z m1347 -7 c4 -6 -2 -20 -13 -32 -35 -39 -54 -75 -43 -81 6 -4
17 7 26 24 20 39 58 64 84 55 29 -9 37 -49 17 -80 -9 -14 -14 -31 -10 -38 4
-7 4 -9 -1 -5 -4 4 -22 -4 -40 -18 -48 -36 -58 -11 -11 28 37 30 50 78 22 78
-17 0 -56 -46 -56 -66 0 -18 -40 -17 -64 1 -19 14 -18 17 25 80 45 66 53 73
64 54z m385 -78 c0 -49 -4 -72 -15 -81 -13 -11 -15 -6 -15 39 0 28 -3 51 -8
51 -4 0 -18 -20 -31 -45 -22 -42 -41 -58 -41 -35 0 20 91 151 100 145 6 -3 10
-37 10 -74z m-2051 -16 c23 -46 24 -82 3 -77 -7 1 -12 -5 -12 -13 0 -23 -28
-18 -55 11 -23 25 -65 105 -65 124 0 7 6 7 20 0 11 -6 20 -20 20 -31 0 -25 27
-79 40 -79 14 0 12 12 -6 38 -23 34 -6 42 18 9 11 -15 24 -27 29 -27 13 0 -8
39 -38 72 -14 14 -22 32 -18 38 10 16 37 -10 64 -65z m441 -9 c33 -31 48 -52
42 -58 -6 -6 -23 3 -47 26 -20 20 -43 36 -51 36 -20 0 -18 -3 26 -48 44 -43
49 -62 24 -87 -24 -24 -62 -11 -106 35 -41 42 -49 70 -20 70 12 0 21 -11 27
-32 10 -34 53 -64 68 -49 15 15 -3 49 -33 63 -35 15 -40 50 -13 80 21 23 20
23 83 -36z m1726 -38 c-15 -24 -34 -58 -43 -75 -27 -54 -34 -37 -8 20 24 51
57 97 70 97 4 0 -5 -19 -19 -42z m-326 24 c0 -9 -38 -52 -45 -52 -10 0 -4 17
13 38 17 22 32 28 32 14z m60 -114 c-23 -28 -38 -53 -34 -57 4 -3 9 0 12 7 8
24 64 82 78 82 37 0 22 -57 -30 -112 -46 -51 -101 -27 -77 33 15 39 71 110 81
104 5 -3 -8 -29 -30 -57z m-447 -66 c-8 -42 -20 -80 -26 -84 -29 -19 -33 -7
-19 52 8 33 12 64 8 68 -4 4 -29 -5 -56 -20 -41 -23 -50 -25 -60 -13 -10 12 2
21 72 53 45 21 86 35 89 29 4 -5 0 -43 -8 -85z m-1565 23 c29 -36 50 -65 47
-65 -14 0 -95 62 -95 72 0 6 11 1 25 -12 14 -13 25 -19 25 -14 0 6 -13 23 -30
39 -26 25 -38 45 -27 45 2 0 27 -29 55 -65z m301 -49 c39 -42 5 -30 -44 15
-25 23 -45 37 -45 32 0 -5 18 -26 41 -47 38 -37 49 -74 24 -83 -17 -5 -71 33
-100 71 -41 54 -24 54 26 1 30 -32 46 -42 53 -35 8 8 -2 22 -32 50 -45 42 -48
50 -30 68 12 12 57 -18 107 -72z m565 43 c35 -27 37 -90 4 -113 -28 -20 -78
-20 -125 -1 -27 12 -34 18 -25 27 8 8 15 8 24 1 14 -12 38 -16 76 -14 36 2 25
18 -17 25 -47 7 -71 28 -71 61 0 28 11 33 66 34 28 1 50 -6 68 -20z m1326 1
c0 -5 -11 -20 -24 -33 -14 -14 -23 -27 -21 -29 3 -2 -9 -20 -25 -39 -27 -31
-29 -32 -25 -10 3 14 8 27 12 30 5 3 21 25 37 49 27 40 46 53 46 32z m-1147
-30 c37 -7 57 -16 54 -23 -3 -7 -8 -11 -13 -11 -73 12 -114 14 -114 6 0 -6 17
-13 39 -17 41 -7 81 -36 81 -60 0 -27 -45 -47 -87 -39 -39 7 -93 33 -93 45 0
16 27 15 49 -2 26 -21 76 -25 86 -9 12 20 -17 40 -56 40 -40 0 -61 20 -52 50
3 8 6 21 9 28 2 7 12 11 21 8 10 -2 44 -10 76 -16z m351 12 c2 -4 -3 -44 -12
-87 -15 -69 -20 -80 -39 -83 -13 -2 -23 -2 -23 0 0 2 7 27 15 57 8 30 12 58 9
63 -3 4 -28 -4 -56 -18 -36 -18 -54 -22 -61 -15 -6 6 -9 12 -6 13 14 10 155
77 161 77 4 1 9 -3 12 -7z m-1233 -165 c6 -9 7 -22 3 -28 -4 -7 -28 10 -60 42
-63 62 -73 89 -14 35 55 -49 63 -45 15 7 l-40 42 43 -40 c24 -22 48 -48 53
-58z m1699 78 c-7 -8 -28 -24 -47 -36 -52 -32 -32 -34 25 -2 39 21 54 25 63
16 23 -23 -68 -113 -115 -113 -30 0 -16 16 34 39 28 12 50 29 50 37 0 22 -25
17 -53 -12 -16 -16 -34 -24 -49 -22 -41 6 -30 32 29 70 63 39 83 47 63 23z
m-1441 -36 c28 -22 51 -45 51 -50 0 -12 -13 -5 -61 33 -55 42 -58 34 -5 -15
32 -31 45 -49 40 -60 -3 -10 -13 -17 -21 -17 -24 0 -81 39 -104 71 -29 41 -5
36 32 -6 29 -32 69 -47 69 -26 0 11 -53 51 -68 51 -15 0 -23 43 -9 52 18 12
21 11 76 -33z m1287 -85 c-3 -9 2 -14 14 -14 11 0 20 -6 20 -13 0 -28 -88 -87
-129 -87 -23 0 -36 16 -21 25 7 5 5 11 -6 19 -15 12 -15 14 7 36 28 27 99 61
112 53 4 -3 6 -11 3 -19z m207 -73 c-38 -37 -93 -74 -100 -68 -10 11 7 39 21
34 8 -3 22 1 33 9 16 14 16 14 -7 3 -31 -14 -24 -7 26 30 47 36 65 30 27 -8z
m-1157 -6 c26 -17 30 -30 14 -40 -8 -5 -8 -11 -1 -19 15 -18 3 -26 -36 -26
-37 0 -133 37 -133 51 0 13 18 11 43 -5 31 -20 87 -30 87 -17 0 7 -13 14 -30
18 -16 3 -30 10 -30 15 0 5 16 6 35 2 22 -4 35 -2 35 4 0 10 -28 17 -89 25 -8
1 -16 7 -18 13 -5 16 93 -1 123 -21z m-382 -37 c66 -38 67 -48 2 -19 -25 11
-46 18 -46 15 0 -3 24 -16 53 -29 31 -14 44 -24 32 -24 -26 -1 -128 67 -120
79 9 15 19 12 79 -22z m506 -1 c1 -15 -23 -87 -29 -87 -22 1 -31 18 -21 44 8
21 7 28 -5 32 -8 4 -13 9 -10 14 6 9 65 7 65 -3z m498 7 c16 -5 21 -12 17 -22
-3 -8 0 -19 7 -23 34 -21 -52 -58 -136 -59 -31 0 -36 3 -27 14 6 7 22 11 36 8
34 -6 95 6 95 20 0 7 -15 9 -40 5 -46 -6 -46 7 0 16 16 4 30 11 30 17 0 14
-35 12 -75 -4 -21 -9 -37 -11 -40 -5 -7 10 9 18 59 29 42 10 47 11 74 4z
m-188 -46 c0 -13 3 -33 6 -44 4 -17 0 -22 -20 -26 -22 -5 -26 -2 -21 13 4 10
2 27 -4 36 -6 10 -11 14 -11 10 0 -5 -5 -5 -11 -2 -13 9 19 34 44 35 11 0 17
-8 17 -22z m-675 -48 c49 -12 82 -31 82 -46 0 -18 -17 -13 -91 27 -53 29 -77
50 -38 34 9 -4 31 -11 47 -15z m1060 -50 c7 -12 -28 -27 -105 -46 -30 -7 -91
-22 -135 -33 -44 -11 -81 -20 -83 -21 -2 0 -1 4 2 9 5 8 36 16 111 28 42 7 44
13 4 14 l-34 1 30 7 c17 4 33 3 36 -2 4 -5 19 -1 34 9 15 10 48 23 73 30 59
16 60 16 67 4z m-1030 -10 c3 -6 -1 -7 -9 -4 -18 7 -21 14 -7 14 6 0 13 -4 16
-10z m351 -54 c20 -21 18 -22 -21 -18 -21 3 -32 8 -28 15 4 6 -3 8 -18 4 -13
-3 -40 -2 -59 3 -30 7 -24 8 38 9 51 1 78 -3 88 -13z m431 8 c-3 -3 -12 -4
-19 -1 -8 3 -5 6 6 6 11 1 17 -2 13 -5z m-267 -26 c0 -10 2 -10 8 -2 5 9 11 8
20 -2 15 -17 -1 -18 -99 -7 l-64 8 45 6 c75 10 90 10 90 -3z"/>
<path d="M1590 2840 c0 -5 21 -10 46 -10 27 0 43 4 39 10 -3 6 -24 10 -46 10
-21 0 -39 -4 -39 -10z"/>
<path d="M1273 2819 c-29 -9 -46 -29 -24 -29 19 0 71 23 71 31 0 11 -4 10 -47
-2z"/>
<path d="M2250 2665 c0 -6 62 -45 73 -45 18 0 4 21 -23 35 -29 15 -50 19 -50
10z"/>
<path d="M1647 2639 c-26 -15 -11 -29 33 -29 41 0 62 16 39 31 -19 12 -50 11
-72 -2z"/>
<path d="M1650 2570 c0 -16 27 -23 55 -16 39 10 29 26 -15 26 -22 0 -40 -5
-40 -10z"/>
<path d="M1462 2569 c-13 -5 -22 -15 -20 -21 7 -19 72 -22 87 -4 11 13 9 17
-14 26 -14 5 -27 10 -28 9 -1 0 -13 -4 -25 -10z"/>
<path d="M1489 2219 c-16 -16 -18 -23 -8 -35 16 -20 43 -18 64 6 38 42 -15 70
-56 29z"/>
<path d="M819 2099 c-9 -17 -8 -23 2 -30 23 -14 42 -11 35 7 -3 9 -6 22 -6 30
0 21 -18 17 -31 -7z"/>
<path d="M520 2069 c-6 -11 -10 -28 -8 -37 3 -13 8 -9 21 15 20 37 21 43 7 43
-5 0 -14 -9 -20 -21z"/>
<path d="M782 1928 c-21 -27 -24 -58 -6 -65 21 -8 44 21 44 54 0 25 -21 31
-38 11z"/>
<path d="M1119 1803 c-12 -33 -4 -73 15 -73 17 0 26 22 26 60 0 39 -28 48 -41
13z m31 3 c0 -3 -4 -8 -10 -11 -5 -3 -10 -1 -10 4 0 6 5 11 10 11 6 0 10 -2
10 -4z"/>
<path d="M1207 1803 c-10 -10 -8 -61 2 -68 14 -8 33 32 26 55 -7 21 -17 25
-28 13z"/>
<path d="M2242 1520 c0 -14 2 -19 5 -12 2 6 2 18 0 25 -3 6 -5 1 -5 -13z"/>
<path d="M2520 1711 c0 -44 11 -58 30 -36 17 20 9 69 -12 73 -15 3 -18 -4 -18
-37z"/>
<path d="M446 1707 c-3 -15 -2 -35 3 -45 9 -16 10 -16 16 0 4 10 3 30 -2 45
l-10 28 -7 -28z"/>
<path d="M283 1570 c0 -25 2 -35 4 -22 2 12 2 32 0 45 -2 12 -4 2 -4 -23z"/>
<path d="M2790 1350 c0 -18 4 -29 10 -25 6 3 10 15 10 25 0 10 -4 22 -10 25
-6 4 -10 -7 -10 -25z"/>
<path d="M1301 1400 c-20 -12 -9 -43 21 -60 32 -17 54 -4 44 27 -8 24 -48 44
-65 33z"/>
<path d="M1974 1290 c-30 -12 -39 -41 -18 -57 13 -10 22 -9 45 3 31 16 36 33
17 52 -14 14 -15 14 -44 2z"/>
<path d="M331 1300 c0 -8 4 -24 9 -35 5 -13 9 -14 9 -5 0 8 -4 24 -9 35 -5 13
-9 14 -9 5z"/>
<path d="M2422 1263 c-7 -3 -19 -18 -28 -34 -13 -26 -13 -30 0 -35 20 -8 35 3
47 34 10 27 2 42 -19 35z"/>
<path d="M2572 885 c-24 -30 -28 -45 -12 -45 14 0 43 47 38 61 -2 7 -13 0 -26
-16z"/>
<path d="M1321 861 c-17 -11 -6 -30 25 -41 49 -19 76 17 29 38 -31 14 -36 14
-54 3z"/>
<path d="M2188 624 c-32 -17 -37 -35 -9 -27 21 5 61 43 45 43 -5 -1 -21 -8
-36 -16z"/>
<path d="M2200 588 c-28 -17 -31 -23 -17 -26 20 -4 67 23 67 38 0 15 -11 12
-50 -12z"/>
<path d="M1086 415 c10 -8 24 -14 29 -14 6 0 1 6 -9 14 -11 8 -24 15 -30 15
-5 0 -1 -7 10 -15z"/>
<path d="M2040 370 l-25 -8 25 -1 c14 0 32 4 40 9 13 9 13 10 0 9 -8 -1 -26
-5 -40 -9z"/>
<path d="M1578 303 c7 -3 16 -2 19 1 4 3 -2 6 -13 5 -11 0 -14 -3 -6 -6z"/>
<path d="M1425 2980 c-3 -5 1 -10 9 -10 9 0 16 5 16 10 0 6 -4 10 -9 10 -6 0
-13 -4 -16 -10z"/>
<path d="M1900 2966 c0 -2 7 -6 15 -10 8 -3 15 -1 15 4 0 6 -7 10 -15 10 -8 0
-15 -2 -15 -4z"/>
</g>
</svg>
