<?xml version="1.0" standalone="no"?>
<!DOCTYPE svg PUBLIC "-//W3C//DTD SVG 20010904//EN"
 "http://www.w3.org/TR/2001/REC-SVG-20010904/DTD/svg10.dtd">
<svg version="1.0" xmlns="http://www.w3.org/2000/svg"
 width="200.000000pt" height="200.000000pt" viewBox="0 0 200.000000 200.000000"
 preserveAspectRatio="xMidYMid meet">

<g transform="translate(0.000000,200.000000) scale(0.100000,-0.100000)"
fill="#000000" stroke="none">
<path d="M605 1601 l-340 -258 4 -214 c2 -118 6 -263 10 -324 l6 -109 379
-273 c209 -150 385 -273 392 -273 15 0 14 -1 395 347 l267 243 6 173 c4 94 8
237 9 317 l2 144 -379 243 c-209 134 -387 243 -395 242 -9 0 -169 -116 -356
-258z m702 -47 c186 -119 339 -217 341 -219 1 -1 -131 -118 -293 -259 -174
-152 -301 -256 -309 -253 -30 12 -687 480 -684 487 2 7 598 459 605 460 1 0
154 -97 340 -216z m346 -426 c-3 -84 -8 -198 -12 -253 l-6 -101 -245 -224
c-135 -123 -260 -237 -277 -254 l-33 -30 0 260 1 259 282 247 c155 135 285
247 288 247 4 1 5 -68 2 -151z m-955 -113 l342 -240 0 -257 c0 -142 -3 -258
-7 -258 -5 1 -156 108 -338 239 l-330 237 -6 105 c-12 180 -17 420 -9 417 4
-2 160 -111 348 -243z"/>
<path d="M840 1494 c-36 -31 -60 -73 -60 -106 1 -111 212 -298 336 -298 57 0
104 34 128 92 17 41 18 53 7 88 -34 114 -172 183 -259 130 -33 -20 -68 -82
-57 -100 4 -6 2 -10 -3 -10 -11 0 -55 57 -65 84 -12 32 18 66 58 66 25 0 39 7
55 27 20 26 20 28 4 40 -10 7 -39 13 -65 13 -37 0 -55 -6 -79 -26z m275 -184
c58 -36 70 -105 22 -127 -77 -35 -174 69 -120 129 21 24 58 23 98 -2z"/>
</g>
</svg>
