<?xml version="1.0" standalone="no"?>
<!DOCTYPE svg PUBLIC "-//W3C//DTD SVG 20010904//EN"
 "http://www.w3.org/TR/2001/REC-SVG-20010904/DTD/svg10.dtd">
<svg version="1.0" xmlns="http://www.w3.org/2000/svg"
 width="200.000000pt" height="200.000000pt" viewBox="0 0 200.000000 200.000000"
 preserveAspectRatio="xMidYMid meet">

<g transform="translate(0.000000,200.000000) scale(0.100000,-0.100000)"
fill="#000000" stroke="none">
<path d="M516 1855 c-9 -9 -16 -18 -16 -21 0 -2 -85 -283 -190 -624 -104 -341
-190 -626 -190 -634 0 -9 8 -19 17 -24 10 -5 310 -100 667 -212 576 -179 650
-200 663 -187 16 16 393 1257 393 1293 0 12 -6 26 -12 31 -10 7 -1163 354
-1299 390 -9 3 -23 -3 -33 -12z m656 -257 c475 -141 574 -174 560 -183 -50
-34 -974 -577 -976 -574 -2 2 -20 90 -40 194 -20 105 -60 313 -89 463 -34 170
-50 272 -43 272 6 0 271 -77 588 -172z m-538 -349 c46 -233 81 -427 78 -431
-10 -10 -485 -189 -489 -184 -3 2 61 220 142 483 179 585 177 581 182 567 2
-6 41 -202 87 -435z m1126 127 c0 -12 -338 -1128 -343 -1133 -5 -5 -629 542
-634 556 -3 6 955 579 970 580 4 1 7 -1 7 -3z m-730 -853 c153 -136 277 -249
275 -251 -1 -2 -237 70 -524 159 -286 90 -518 165 -515 168 12 13 460 179 472
175 7 -2 138 -115 292 -251z"/>
<path d="M893 1589 c-18 -5 -48 -24 -67 -43 -30 -27 -36 -40 -36 -74 0 -50 38
-95 98 -113 41 -12 42 -13 42 -55 0 -76 83 -143 176 -144 61 0 142 45 167 93
17 33 18 44 8 77 -18 59 -101 119 -166 120 -5 0 -10 16 -11 35 -2 83 -106 134
-211 104z m105 -85 c31 -22 30 -71 -2 -85 -47 -22 -106 10 -106 56 0 42 64 60
108 29z m132 -139 c31 -16 60 -51 60 -72 0 -25 -39 -53 -74 -53 -39 0 -96 46
-96 77 0 27 38 59 73 62 4 1 21 -6 37 -14z"/>
</g>
</svg>
