<svg width="36" height="36" viewBox="0 0 36 36" fill="none" xmlns="http://www.w3.org/2000/svg">
<path d="M33.5397 7.42514L20.6066 0.632039C19.8045 0.210516 18.9021 0 18.0008 0C17.0984 0 16.1955 0.210516 15.3939 0.632039L2.46082 7.42514C0.934238 8.22713 0 9.67155 0 11.2302V24.7698C0 26.3284 0.934238 27.7729 2.46082 28.5749L15.3939 35.368C16.1954 35.789 17.0984 36 18.0008 36C18.9022 36 19.8045 35.789 20.6066 35.368L33.5397 28.5749C35.0664 27.7729 36 26.3284 36 24.7698V11.2302C36 9.67155 35.0663 8.22713 33.5397 7.42514ZM17.5663 34.6453C17.0823 34.5929 16.6085 34.4545 16.1756 34.227L3.24241 27.4339C2.174 26.8722 1.51959 25.8611 1.51959 24.7698V11.2302C1.51959 10.8068 1.61876 10.3962 1.80207 10.0185L17.5663 18.2985V34.6453ZM2.23551 9.35958C2.50562 9.0457 2.84519 8.77472 3.24241 8.56603L16.1755 1.77293C16.7372 1.4779 17.3679 1.33066 18.0007 1.33066C18.6325 1.33066 19.2633 1.47797 19.8249 1.77293L32.758 8.56603C33.1548 8.77472 33.4954 9.04563 33.7649 9.35958L18.0008 17.6401L2.23551 9.35958ZM34.4809 24.7698C34.4809 25.8611 33.8265 26.8722 32.7581 27.4339L19.825 34.227C19.3916 34.4545 18.9183 34.5929 18.4342 34.6453V18.2985L34.1985 10.0185C34.3817 10.3962 34.481 10.8069 34.481 11.2303V24.7698H34.4809Z" fill="black"/>
<path d="M28.1448 8.1407C27.3556 7.62854 26.0553 7.61581 25.2414 8.11145C24.4264 8.60708 24.4059 9.42467 25.195 9.93591C25.9842 10.4476 27.2845 10.4609 28.0984 9.96517C28.9135 9.46904 28.934 8.65243 28.1448 8.1407Z" fill="black"/>
<path d="M10.7429 7.98499C9.95373 7.47325 8.65343 7.46053 7.83843 7.95616C7.02447 8.45229 7.004 9.2689 7.79258 9.78063C8.58229 10.2928 9.88251 10.3051 10.6965 9.80988C11.5116 9.31333 11.5321 8.49672 10.7429 7.98499Z" fill="black"/>
<path d="M19.3938 8.09313C18.6315 7.5989 17.3755 7.58618 16.5885 8.06529C15.8015 8.5444 15.781 9.33366 16.5438 9.82788C17.3065 10.322 18.5626 10.3348 19.3495 9.85573C20.1366 9.37662 20.1571 8.58736 19.3938 8.09313Z" fill="black"/>
<path d="M4.61388 17.4588C5.50982 17.8865 6.23537 17.5966 6.23537 16.8126C6.23537 16.0281 5.50982 15.0457 4.61388 14.6181C3.71795 14.1905 2.99127 14.4798 2.99127 15.2643C2.99127 16.0483 3.71795 17.0311 4.61388 17.4588Z" fill="black"/>
<path d="M13.669 21.7808C14.5649 22.2084 15.2915 21.9191 15.2915 21.1351C15.2915 20.3505 14.5648 19.3677 13.669 18.94C12.7736 18.5129 12.0475 18.8022 12.0475 19.5868C12.0475 20.3708 12.7736 21.3531 13.669 21.7808Z" fill="black"/>
<path d="M4.61388 25.3886C5.50982 25.8162 6.23537 25.5269 6.23537 24.7424C6.23537 23.9579 5.50982 22.9755 4.61388 22.5479C3.71795 22.1202 2.99127 22.4096 2.99127 23.1941C2.99127 23.9786 3.71795 24.9609 4.61388 25.3886Z" fill="black"/>
<path d="M13.669 29.7105C14.5649 30.1382 15.2915 29.8488 15.2915 29.0643C15.2915 28.2802 14.5648 27.2975 13.669 26.8698C12.7736 26.4426 12.0475 26.732 12.0475 27.516C12.0475 28.3006 12.7736 29.2829 13.669 29.7105Z" fill="black"/>
<path d="M26.5071 19.8922C25.0732 20.5762 23.912 22.1481 23.912 23.4027C23.912 24.6578 25.0732 25.121 26.5071 24.437C27.9399 23.7525 29.1022 22.1806 29.1022 20.9255C29.1022 19.6708 27.9399 19.2077 26.5071 19.8922Z" fill="black"/>
</svg>
